<?xml version="1.0" encoding="UTF-8" standalone="no"?>
<svg
   xmlns:dc="http://purl.org/dc/elements/1.1/"
   xmlns:cc="http://creativecommons.org/ns#"
   xmlns:rdf="http://www.w3.org/1999/02/22-rdf-syntax-ns#"
   xmlns:svg="http://www.w3.org/2000/svg"
   xmlns="http://www.w3.org/2000/svg"
   xmlns:sodipodi="http://sodipodi.sourceforge.net/DTD/sodipodi-0.dtd"
   xmlns:inkscape="http://www.inkscape.org/namespaces/inkscape"
   viewBox="0 0 200 200"
   height="200"
   width="200"
   xml:space="preserve"
   id="svg2"
   version="1.1"
   inkscape:version="0.91 r13725"
   sodipodi:docname="carotte.svg"><sodipodi:namedview
     pagecolor="#ffffff"
     bordercolor="#666666"
     borderopacity="1"
     objecttolerance="10"
     gridtolerance="10"
     guidetolerance="10"
     inkscape:pageopacity="0"
     inkscape:pageshadow="2"
     inkscape:window-width="1440"
     inkscape:window-height="895"
     id="namedview56"
     showgrid="false"
     inkscape:zoom="0.89239144"
     inkscape:cx="-91.761737"
     inkscape:cy="32.053632"
     inkscape:window-x="75"
     inkscape:window-y="34"
     inkscape:window-maximized="0"
     inkscape:current-layer="svg2" /><metadata
     id="metadata8"><rdf:RDF><cc:Work
         rdf:about=""><dc:format>image/svg+xml</dc:format><dc:type
           rdf:resource="http://purl.org/dc/dcmitype/StillImage" /><dc:title></dc:title></cc:Work></rdf:RDF></metadata><defs
     id="defs6" /><g
     transform="matrix(0.17479677,0,0,-0.17479677,1.6710281,197.20839)"
     id="g10"><g
       transform="scale(0.1,0.1)"
       id="g12"><path
         id="path14"
         style="fill:#ffffff;fill-opacity:1;fill-rule:nonzero;stroke:none"
         d="m 0,0 11220,0 0,11220 -11220,0 z"
         inkscape:connector-curvature="0" /><path
         id="path16"
         style="fill:#7e9b48;fill-opacity:1;fill-rule:nonzero;stroke:none"
         d="m 4047.69,6112.76 c 0,0 -1064.12,4156.44 -557.48,4428.54 506.64,272.2 706.93,-4408.25 706.93,-4408.25 l -149.45,-20.29"
         inkscape:connector-curvature="0" /><path
         id="path18"
         style="fill:#86a84f;fill-opacity:1;fill-rule:nonzero;stroke:none"
         d="m 4163.11,7244.44 c 0,0 406.07,1333.72 212.25,2121.09 -193.82,787.37 -355.2,-106.33 -374.88,-922.66 -19.68,-816.34 -31.51,-1370.08 -31.51,-1370.08 l 194.14,171.65"
         inkscape:connector-curvature="0" /><path
         id="path20"
         style="fill:#86a84f;fill-opacity:1;fill-rule:nonzero;stroke:none"
         d="m 3800.9,6581.48 c 0,0 -1047.58,2189.47 -1083.64,2954.59 -36.06,765.13 820.74,-556.69 1182.62,-2775.24 l -98.98,-179.35"
         inkscape:connector-curvature="0" /><path
         id="path22"
         style="fill:#e07c44;fill-opacity:1;fill-rule:nonzero;stroke:none"
         d="m 4681.98,6842.96 c -17.24,19.25 -43.44,25.66 -66.67,18.67 -91.61,426.02 -227.08,582.36 -376.41,642.75 -224.28,90.68 -1077,126.38 -1048.12,-1202.07 7.69,-353.97 94.57,-874.14 219.03,-1448.19 -23.87,-5.23 -43.74,-23.8 -49.27,-49.25 -7.58,-34.82 14.5,-69.19 49.31,-76.75 1.68,-0.37 11.38,-2.37 28.66,-4.33 95.83,-429.12 210.41,-882.95 327.05,-1316.45 -28.41,-7.66 -48.74,-33.94 -47.65,-64.53 1.27,-35.59 31.16,-63.44 66.76,-62.16 1.32,0.04 6.55,0.24 15.02,0.64 295.87,-1086.24 594.39,-2013.72 624.33,-2050.25 399.06,-486.938 416.04,1420.05 368.12,3021.49 9.32,4.57 18.61,9.26 27.84,14.12 31.53,16.59 43.65,55.6 27.06,87.13 -11.88,22.57 -35.25,35.11 -59.13,34.38 -11.71,360.83 -26.33,701.72 -40.09,990.74 1.95,0.61 4.01,1.14 5.94,1.76 33.95,10.8 52.71,47.08 41.92,81.03 -7.93,24.92 -29.65,41.6 -54.02,44.48 -9.65,196.11 -18.57,362.95 -25.35,488.38 -16.09,297.85 -41.73,537.9 -74.94,731.55 22.44,14.33 33.76,24.13 35.58,25.77 26.54,23.76 28.8,64.55 5.03,91.09"
         inkscape:connector-curvature="0" /><path
         id="path24"
         style="fill:#e7986c;fill-opacity:1;fill-rule:nonzero;stroke:none"
         d="m 3403.45,6552.17 c -33.13,0 -61.3,25.35 -64.21,58.96 -41.2,477.21 267.34,642.75 280.49,649.56 9.48,4.91 19.61,7.24 29.6,7.24 23.34,0 45.88,-12.7 57.35,-34.85 16.32,-31.53 4.11,-70.29 -27.27,-86.78 -11.02,-5.93 -245.05,-137.08 -211.62,-524.06 2.96,-34.44 -21.68,-64.88 -55.55,-69.47 -1.05,-0.15 -2.1,-0.27 -3.17,-0.36 -1.89,-0.16 -3.77,-0.24 -5.62,-0.24"
         inkscape:connector-curvature="0" /><path
         id="path26"
         style="fill:#e7986c;fill-opacity:1;fill-rule:nonzero;stroke:none"
         d="m 3409.19,6178.9 c -34.02,0 -62.47,26.6 -64.35,60.97 l -9.43,171.77 c -1.95,35.58 25.37,66.1 60.87,67.95 1.21,0.06 2.41,0.1 3.61,0.1 34.01,0 62.46,-26.61 64.34,-60.97 l 9.43,-171.78 c 1.86,-33.81 -22.68,-62.97 -55.66,-67.45 -1.72,-0.23 -3.45,-0.4 -5.21,-0.49 -1.21,-0.07 -2.41,-0.1 -3.6,-0.1"
         inkscape:connector-curvature="0" /><path
         id="path28"
         style="fill:#d36c35;fill-opacity:1;fill-rule:nonzero;stroke:none"
         d="m 4556.27,1386.48 c -5.11,0 -10.31,0.73 -15.46,2.28 -28.45,8.53 -44.57,38.5 -36.06,66.94 0.74,2.43 72.96,245.6 83.34,475.98 1.3,28.8 24.99,51.34 53.55,51.34 0.86,0 1.71,-0.02 2.57,-0.06 29.66,-1.32 52.62,-26.46 51.28,-56.11 -10.97,-244.03 -84.62,-491.64 -87.75,-502.07 -6.27,-20.84 -24.04,-35.07 -44.28,-37.82 -2.37,-0.32 -4.77,-0.48 -7.19,-0.48"
         inkscape:connector-curvature="0" /><path
         id="path30"
         style="fill:#98af6d;fill-opacity:1;fill-rule:nonzero;stroke:none"
         d="m 3459.14,10156.4 c -1.23,0 -2.47,0 -3.72,0.1 -26.64,2.1 -46.59,25.3 -44.56,52 13.12,171.7 102.06,237.1 112.15,243.9 8.36,5.7 17.84,8.4 27.23,8.4 15.46,0 30.64,-7.3 40.01,-21.1 14.92,-21.9 9.47,-51.6 -12.11,-66.8 -3.58,-2.7 -61.31,-47.7 -70.79,-171.8 -1.77,-23.2 -19.57,-41.3 -41.69,-44.3 -2.13,-0.2 -4.31,-0.4 -6.52,-0.4"
         inkscape:connector-curvature="0" /><path
         id="path32"
         style="fill:#98af6d;fill-opacity:1;fill-rule:nonzero;stroke:none"
         d="m 3439.16,9904.13 c -1.36,0 -2.74,0.06 -4.13,0.18 -26.62,2.23 -46.39,25.63 -44.15,52.26 l 8.29,98.83 c 2.12,25.2 23.24,44.3 48.19,44.3 1.35,0 2.71,-0.1 4.08,-0.2 26.62,-2.2 46.39,-25.6 44.15,-52.3 l -8.29,-98.73 c -1.93,-23.02 -19.68,-40.92 -41.66,-43.9 -2.12,-0.29 -4.29,-0.44 -6.48,-0.44"
         inkscape:connector-curvature="0" /><path
         id="path34"
         style="fill:#9eb972;fill-opacity:1;fill-rule:nonzero;stroke:none"
         d="m 2847.57,9302.19 c -19.07,0 -37.13,11.35 -44.8,30.09 -57.02,139.46 -45.59,253.72 -45.08,258.51 2.65,24.81 23.64,43.22 48.05,43.22 1.72,0 3.46,-0.09 5.21,-0.27 26.52,-2.85 45.72,-26.61 42.97,-53.1 -0.18,-1.84 -8.64,-96.65 38.41,-211.75 10.13,-24.73 -1.73,-52.97 -26.47,-63.09 -1.17,-0.48 -2.34,-0.91 -3.54,-1.29 -4.87,-1.57 -9.85,-2.32 -14.75,-2.32"
         inkscape:connector-curvature="0" /><path
         id="path36"
         style="fill:#e2ad92;fill-opacity:1;fill-rule:nonzero;stroke:none"
         d="m 4641.38,6726.08 c -0.01,0.01 -0.01,0.01 -0.01,0.02 22.44,14.33 33.76,24.13 35.58,25.77 14.21,12.71 21.45,30.31 21.48,47.98 -0.03,-17.67 -7.27,-35.27 -21.48,-47.98 -1.83,-1.64 -13.07,-11.43 -35.57,-25.79 m 40.6,116.88 c -12.72,14.2 -30.32,21.42 -48,21.42 -6.29,0 -12.58,-0.91 -18.67,-2.75 0,0.03 -0.01,0.05 -0.01,0.08 6.06,1.82 12.33,2.73 18.59,2.73 17.71,0 35.35,-7.25 48.09,-21.48"
         inkscape:connector-curvature="0" /><path
         id="path38"
         style="fill:#d36c35;fill-opacity:1;fill-rule:nonzero;stroke:none"
         d="m 3896.21,6559.36 c -35.11,0 -63.86,28.13 -64.49,63.37 -0.64,35.61 27.79,65.01 63.36,65.64 513.63,9.13 694.12,158.11 695.8,159.62 7.29,6.52 15.64,11.08 24.42,13.72 0,-0.03 0.01,-0.05 0.01,-0.08 6.09,1.84 12.38,2.75 18.67,2.75 17.68,0 35.28,-7.22 48,-21.42 l 0,0 c 11.05,-12.34 16.47,-27.75 16.45,-43.11 -0.03,-17.67 -7.27,-35.27 -21.48,-47.98 -1.82,-1.64 -13.14,-11.44 -35.58,-25.77 0,-0.01 0,-0.01 0.01,-0.02 -60.74,-38.75 -203.55,-110.85 -465.05,-146.34 -81.19,-11.01 -173.78,-18.5 -278.96,-20.37 -0.39,-0.01 -0.78,-0.01 -1.16,-0.01"
         inkscape:connector-curvature="0" /><path
         id="path40"
         style="fill:#d36c35;fill-opacity:1;fill-rule:nonzero;stroke:none"
         d="m 3640.96,5849.65 c -113.59,0 -183.88,9.93 -190.92,10.98 -35.26,5.21 -59.59,38.01 -54.38,73.25 4.74,32.09 32.36,55.07 63.84,55.07 3.09,0 6.21,-0.22 9.35,-0.68 1.58,-0.23 64.65,-8.99 169.02,-8.99 163.06,0 426.99,21.35 715.12,129.87 7.49,2.83 15.18,4.17 22.73,4.17 26.09,0 50.65,-15.97 60.37,-41.81 12.56,-33.34 -4.29,-70.55 -37.64,-83.11 -171.08,-64.42 -333.04,-100.18 -473.07,-119.18 -110.51,-15 -207.42,-19.57 -284.42,-19.57"
         inkscape:connector-curvature="0" /><path
         id="path42"
         style="fill:#e2ad92;fill-opacity:1;fill-rule:nonzero;stroke:none"
         d="m 3438.51,4723.79 c -16.91,1.91 -26.5,3.86 -28.52,4.3 2.02,-0.44 11.67,-2.39 28.52,-4.3 l 0,0 m -77.9,81.4 c 0.01,0.05 0.02,0.09 0.03,0.13 -0.01,-0.04 -0.02,-0.08 -0.03,-0.13 m 0.07,0.32 c 0.01,0.05 0.03,0.11 0.04,0.16 -0.01,-0.05 -0.03,-0.1 -0.04,-0.16 m 0.08,0.32 c 0.01,0.06 0.02,0.12 0.04,0.18 -0.02,-0.06 -0.03,-0.12 -0.04,-0.18 m 0.07,0.31 c 0.01,0.07 0.03,0.13 0.04,0.19 -0.01,-0.06 -0.03,-0.12 -0.04,-0.19 m 0.07,0.3 c 0.06,0.26 0.13,0.52 0.19,0.78 -0.06,-0.26 -0.13,-0.52 -0.19,-0.78 m 0.2,0.8 c 0.02,0.08 0.04,0.17 0.07,0.26 -0.03,-0.09 -0.05,-0.18 -0.07,-0.26 m 0.08,0.3 c 0.02,0.09 0.05,0.18 0.07,0.28 -0.02,-0.1 -0.05,-0.19 -0.07,-0.28 m 0.07,0.28 c 6.38,23.94 25.61,41.33 48.55,46.36 0.01,-0.03 0,-0.02 0.01,-0.06 -22.94,-5.02 -42.18,-22.37 -48.56,-46.3"
         inkscape:connector-curvature="0" /><path
         id="path44"
         style="fill:#d36c35;fill-opacity:1;fill-rule:nonzero;stroke:none"
         d="m 3518.02,4719.74 c -34.74,0 -61.35,2 -79.51,4.05 l 0,0 c -16.85,1.91 -26.5,3.86 -28.52,4.3 -0.05,0.01 -0.1,0.02 -0.14,0.03 l 0,0 c -30.18,6.56 -50.8,33.27 -50.8,62.96 0,4.55 0.48,9.16 1.49,13.79 0.02,0.11 0.05,0.21 0.07,0.32 0.01,0.05 0.02,0.09 0.03,0.13 0.01,0.07 0.03,0.13 0.04,0.19 0.01,0.06 0.03,0.11 0.04,0.16 0.01,0.05 0.02,0.11 0.04,0.16 0.01,0.06 0.02,0.12 0.04,0.18 0.01,0.04 0.02,0.09 0.03,0.13 0.01,0.07 0.03,0.13 0.04,0.19 0.01,0.04 0.02,0.08 0.03,0.11 0.06,0.26 0.13,0.52 0.19,0.78 0.01,0 0.01,0.01 0.01,0.02 0.02,0.08 0.04,0.17 0.07,0.26 0,0.01 0,0.03 0.01,0.04 0.02,0.09 0.05,0.18 0.07,0.28 l 0,0 c 6.38,23.93 25.62,41.28 48.56,46.3 -0.01,0.04 0,0.03 -0.01,0.06 4.46,0.98 9.05,1.49 13.73,1.49 4.41,0 8.89,-0.46 13.37,-1.4 1.5,-0.3 28.96,-5.43 80.73,-5.43 80.71,0 220.51,12.47 413.17,75.19 6.6,2.14 13.31,3.16 19.91,3.16 27.18,0 52.51,-17.27 61.39,-44.53 11.03,-33.87 -7.48,-70.28 -41.37,-81.31 -117.67,-38.31 -218.01,-59.48 -299.88,-70.59 -61.52,-8.35 -112.62,-11.02 -152.83,-11.02"
         inkscape:connector-curvature="0" /><path
         id="path46"
         style="fill:#d36c35;fill-opacity:1;fill-rule:nonzero;stroke:none"
         d="m 3687.78,5240.05 c -39.72,0 -74.31,29.36 -79.8,69.81 -5.99,44.12 24.93,84.75 69.06,90.74 3.68,0.5 7.34,0.75 10.95,0.75 39.72,0 74.31,-29.35 79.8,-69.81 5.98,-44.13 -24.93,-84.76 -69.07,-90.74 -3.67,-0.5 -7.33,-0.75 -10.94,-0.75"
         inkscape:connector-curvature="0" /><path
         id="path48"
         style="fill:#e2ad92;fill-opacity:1;fill-rule:nonzero;stroke:none"
         d="m 4792.14,4252.53 0,0 c 7.25,3.55 14.48,7.18 21.68,10.91 -7.2,-3.73 -14.43,-7.37 -21.68,-10.92 m 54.9,101.26 c -11.55,21.94 -33.97,34.41 -57.15,34.41 -0.66,0 -1.32,-0.01 -1.98,-0.03 0,0.02 0,0.05 0,0.08 0.66,0.02 1.32,0.03 1.97,0.03 23.2,0 45.61,-12.54 57.16,-34.49"
         inkscape:connector-curvature="0" /><path
         id="path50"
         style="fill:#d36c35;fill-opacity:1;fill-rule:nonzero;stroke:none"
         d="m 4132.37,4113.36 c -55.1,0 -89.79,2.79 -94.59,3.2 -35.49,3.04 -61.8,34.28 -58.76,69.78 2.88,33.65 31.14,59.01 64.25,59.01 1.81,0 3.64,-0.08 5.48,-0.23 1.06,-0.09 30.6,-2.41 79.36,-2.41 131,0 400.98,16.7 631.81,138.13 8.95,4.71 18.51,7.1 27.99,7.4 0,-0.03 0,-0.06 0,-0.08 0.66,0.02 1.32,0.03 1.98,0.03 23.18,0 45.6,-12.47 57.15,-34.41 l 0,0 c 5.06,-9.61 7.45,-19.91 7.43,-30.06 -0.03,-23.16 -12.57,-45.53 -34.49,-57.07 l 0,0 c -2.06,-1.08 -4.1,-2.15 -6.16,-3.21 -7.2,-3.73 -14.43,-7.36 -21.68,-10.91 l 0,0 c -143.01,-70.03 -294.35,-105.61 -423.66,-123.15 -94.34,-12.8 -176.97,-16.02 -236.11,-16.02"
         inkscape:connector-curvature="0" /><path
         id="path52"
         style="fill:#e2ad92;fill-opacity:1;fill-rule:nonzero;stroke:none"
         d="m 3782.32,3280.61 0,0 c 0,0 0,0 0.01,0 -0.01,0 -0.01,0 -0.01,0 m -0.14,0 c -34.49,0.07 -63.03,27.44 -64.27,62.2 l 0,0 0,0 c 1.24,-34.76 29.78,-62.13 64.27,-62.2 m -64.28,62.58 c -0.01,0.07 -0.01,0.13 -0.01,0.19 0,-0.06 0,-0.12 0.01,-0.19 m -0.01,0.38 c -0.01,0.08 -0.01,0.15 -0.01,0.23 0,-0.08 0,-0.15 0.01,-0.23 m -0.01,0.36 c 0,0.09 0,0.18 -0.01,0.27 0.01,-0.09 0.01,-0.18 0.01,-0.27 m -0.01,0.36 c 0,0.1 0,0.2 0,0.3 0,-0.1 0,-0.2 0,-0.3 m 0,0.32 c -0.25,29.82 19.83,55.28 47.67,62.79 0.01,-0.03 0.01,-0.03 0.02,-0.06 -27.85,-7.51 -47.94,-32.91 -47.69,-62.73"
         inkscape:connector-curvature="0" /><path
         id="path54"
         style="fill:#d36c35;fill-opacity:1;fill-rule:nonzero;stroke:none"
         d="m 3782.32,3280.61 c -0.05,0 -0.09,0 -0.14,0 -34.49,0.07 -63.03,27.44 -64.27,62.2 l 0,0 c -0.01,0.13 -0.01,0.25 -0.01,0.38 -0.01,0.07 -0.01,0.13 -0.01,0.19 0,0.07 0,0.13 0,0.19 -0.01,0.08 -0.01,0.15 -0.01,0.23 0,0.05 0,0.09 0,0.13 0,0.09 0,0.18 -0.01,0.27 0,0.03 0,0.06 0,0.09 0,0.1 0,0.2 0,0.3 0,0.01 0,0.02 0,0.02 -0.25,29.82 19.84,55.22 47.69,62.73 -0.01,0.03 -0.01,0.03 -0.02,0.06 4.65,1.25 9.5,2 14.52,2.19 2.36,0.09 238.22,9 407.41,52.55 5.38,1.39 10.78,2.06 16.1,2.06 28.69,0 54.95,-19.34 62.46,-48.45 8.87,-34.5 -11.89,-69.67 -46.39,-78.56 -58.02,-14.93 -121.98,-26.05 -182.59,-34.28 -130.46,-17.7 -245.42,-22.02 -252.38,-22.26 l 0,0 0,0 c -0.78,-0.03 -1.57,-0.04 -2.34,-0.04 -0.01,0 -0.01,0 -0.01,0"
         inkscape:connector-curvature="0" /><path
         id="path56"
         style="fill:#d36c35;fill-opacity:1;fill-rule:nonzero;stroke:none"
         d="m 4437.1,2446.51 c -33.45,0 -54.48,2.66 -56.64,2.94 -35.31,4.67 -60.16,37.09 -55.5,72.41 4.3,32.45 32.05,56.06 63.87,56.06 2.76,0 5.54,-0.17 8.34,-0.54 0.8,-0.09 15.6,-1.81 39.7,-1.81 41.82,0 111.65,5.16 184.91,32.88 7.52,2.83 15.24,4.17 22.82,4.17 26.08,0 50.59,-15.87 60.36,-41.68 12.6,-33.33 -4.19,-70.57 -37.51,-83.17 -49.68,-18.79 -97.78,-29.37 -139.95,-35.09 -35.06,-4.76 -66.03,-6.17 -90.4,-6.17"
         inkscape:connector-curvature="0" /><path
         id="path58"
         style="fill:#d36c35;fill-opacity:1;fill-rule:nonzero;stroke:none"
         d="m 4575.39,3016.86 c -39.73,0 -74.32,29.35 -79.81,69.81 -5.99,44.13 24.93,84.76 69.06,90.74 3.68,0.5 7.34,0.74 10.95,0.74 39.72,0 74.31,-29.35 79.8,-69.8 5.99,-44.13 -24.93,-84.76 -69.06,-90.75 -3.68,-0.5 -7.33,-0.74 -10.94,-0.74"
         inkscape:connector-curvature="0" /><path
         id="path60"
         style="fill:#e2ad92;fill-opacity:1;fill-rule:nonzero;stroke:none"
         d="m 4747.83,5378.79 c 0,0.04 0,0.08 -0.01,0.11 1.95,0.61 4.01,1.14 5.94,1.76 27.46,8.74 44.98,34.13 44.97,61.48 0.01,-27.35 -17.51,-52.74 -44.97,-61.48 -1.97,-0.63 -3.94,-1.25 -5.93,-1.87 m 47.75,83.21 c -0.01,0.04 -0.02,0.07 -0.03,0.11 0.01,-0.04 0.02,-0.07 0.03,-0.11 m -0.1,0.3 c -0.01,0.05 -0.03,0.1 -0.05,0.15 0.02,-0.05 0.04,-0.1 0.05,-0.15 m -0.1,0.31 c -0.01,0.05 -0.03,0.1 -0.05,0.15 0.02,-0.05 0.03,-0.1 0.05,-0.15 m -0.1,0.3 c -0.02,0.05 -0.04,0.11 -0.06,0.16 0.02,-0.05 0.04,-0.11 0.06,-0.16 m -0.1,0.29 c -0.02,0.06 -0.04,0.12 -0.06,0.18 0.02,-0.06 0.04,-0.12 0.06,-0.18 m -0.1,0.29 c -0.02,0.07 -0.05,0.13 -0.07,0.2 0.02,-0.07 0.05,-0.13 0.07,-0.2 m -0.1,0.28 c -0.03,0.08 -0.05,0.15 -0.08,0.22 0.03,-0.07 0.05,-0.14 0.08,-0.22 m -0.09,0.26 c -8.52,23.62 -29.63,39.35 -53.23,42.14 0,0.02 0,0.03 0,0.05 23.6,-2.77 44.71,-18.56 53.23,-42.19"
         inkscape:connector-curvature="0" /><path
         id="path62"
         style="fill:#d36c35;fill-opacity:1;fill-rule:nonzero;stroke:none"
         d="m 4316.67,5299.56 c -32.96,0 -61.08,25.15 -64.16,58.61 -3.26,35.46 22.73,66.81 58.32,70.15 2.34,0.22 237.33,22.33 403.81,75.29 6.49,2.07 13.07,3.05 19.54,3.05 2.51,0 5.01,-0.14 7.48,-0.44 0,-0.02 0,-0.03 0,-0.05 23.6,-2.79 44.71,-18.52 53.23,-42.14 0,-0.01 0.01,-0.02 0.01,-0.04 0.03,-0.07 0.05,-0.14 0.08,-0.22 0.01,-0.03 0.02,-0.05 0.03,-0.08 0.02,-0.07 0.05,-0.13 0.07,-0.2 0.01,-0.04 0.02,-0.07 0.04,-0.11 0.02,-0.06 0.04,-0.12 0.06,-0.18 0.01,-0.04 0.03,-0.08 0.04,-0.13 0.02,-0.05 0.04,-0.11 0.06,-0.16 0.02,-0.05 0.03,-0.1 0.05,-0.15 0.02,-0.05 0.04,-0.1 0.05,-0.15 0.02,-0.06 0.04,-0.11 0.05,-0.16 0.02,-0.05 0.04,-0.1 0.05,-0.15 0.02,-0.06 0.05,-0.13 0.07,-0.19 0.01,-0.04 0.02,-0.07 0.03,-0.11 0.03,-0.1 0.07,-0.2 0.1,-0.31 2.07,-6.5 3.05,-13.08 3.05,-19.55 0.01,-27.35 -17.51,-52.74 -44.97,-61.48 -1.93,-0.62 -3.99,-1.15 -5.94,-1.76 0.01,-0.03 0.01,-0.07 0.01,-0.11 -55.52,-17.31 -116.47,-31.38 -174.45,-42.58 -129.26,-24.98 -243.79,-35.73 -250.74,-36.37 -2,-0.19 -4,-0.28 -5.97,-0.28"
         inkscape:connector-curvature="0" /><path
         id="path64"
         style="fill:#7e9b48;fill-opacity:1;fill-rule:nonzero;stroke:none"
         d="m 6874.5,5028.48 c 0,0 1472.09,3572.82 1054.51,3879.31 C 7511.44,9214.27 6743.77,5065.37 6743.77,5065.37 l 130.73,-36.89"
         inkscape:connector-curvature="0" /><path
         id="path66"
         style="fill:#86a84f;fill-opacity:1;fill-rule:nonzero;stroke:none"
         d="m 6913.99,6052.24 c 0,0 -194.29,1240.54 77.66,1918.34 271.94,677.78 303.39,-139.53 218.2,-870.02 -85.19,-730.51 -144.33,-1225.82 -144.33,-1225.82 l -151.53,177.5"
         inkscape:connector-curvature="0" /><path
         id="path68"
         style="fill:#86a84f;fill-opacity:1;fill-rule:nonzero;stroke:none"
         d="m 7153.58,5415.42 c 0,0 1209.8,1820.77 1338.25,2498.57 128.45,677.8 -802.01,-393.17 -1403.95,-2326.16 l 65.7,-172.41"
         inkscape:connector-curvature="0" /><path
         id="path70"
         style="fill:#e07c44;fill-opacity:1;fill-rule:nonzero;stroke:none"
         d="m 6400.73,5759.5 c 17.8,15 41.97,17.42 61.8,8.27 135.32,368.39 275.82,490.77 416.59,525.83 211.42,52.65 976.38,-22.83 783.44,-1203.93 -51.4,-314.71 -194.36,-767.67 -377.59,-1263.95 20.63,-7.67 36.01,-26.73 37.74,-50.13 2.38,-32 -21.64,-59.87 -53.64,-62.24 -1.54,-0.11 -10.45,-0.68 -26.1,-0.24 -139.47,-370.64 -298.77,-760.97 -457.34,-1132.88 24.36,-10.41 39.19,-36.4 34.36,-63.54 -5.6,-31.59 -35.76,-52.66 -67.35,-47.04 -1.17,0.21 -5.82,1.04 -13.31,2.46 -400.57,-931.48 -783.52,-1721.008 -814.82,-1749.911 -417.17,-384 -192.31,1318.831 51.96,2740.981 -7.74,5.24 -15.43,10.6 -23.05,16.1 -26.03,18.76 -31.93,55.07 -13.17,81.11 13.44,18.63 35.86,26.88 57.06,23.21 55.86,320.32 111.8,622.49 160.44,878.52 -1.66,0.78 -3.43,1.52 -5.08,2.31 -28.91,13.92 -41.08,48.63 -27.18,77.55 10.21,21.22 31.68,33.36 53.78,32.86 33.29,173.68 62.23,321.35 84.06,432.36 51.84,263.6 104.92,474.45 158.91,642.98 -18.22,15.6 -27.07,25.76 -28.5,27.45 -20.67,24.53 -17.55,61.19 6.99,81.87"
         inkscape:connector-curvature="0" /><path
         id="path72"
         style="fill:#e7986c;fill-opacity:1;fill-rule:nonzero;stroke:none"
         d="m 7512.46,5338.69 c -4.32,0 -8.71,0.49 -13.1,1.5 -0.94,0.21 -1.86,0.46 -2.78,0.71 -29.63,8.36 -47.78,38.61 -40.79,68.95 78.5,340.91 -113.7,487.32 -122.78,494 -25.91,18.65 -31.93,54.76 -13.4,80.82 11.33,15.94 29.23,24.43 47.41,24.43 11.64,0 23.4,-3.49 33.61,-10.74 10.87,-7.73 265.2,-194.2 168.4,-614.59 -6.19,-26.89 -30.11,-45.08 -56.57,-45.08"
         inkscape:connector-curvature="0" /><path
         id="path74"
         style="fill:#e7986c;fill-opacity:1;fill-rule:nonzero;stroke:none"
         d="m 7460.37,5006.52 c -3.73,0 -7.52,0.37 -11.32,1.12 -1.56,0.3 -3.08,0.67 -4.58,1.1 -28.86,8.14 -47.06,37.23 -41.16,67.15 l 30.03,152.01 c 5.47,27.67 29.75,46.85 56.93,46.85 3.74,0 7.53,-0.37 11.33,-1.12 31.43,-6.12 51.95,-36.77 45.73,-68.25 l -30.03,-152.01 c -5.46,-27.67 -29.74,-46.85 -56.93,-46.85"
         inkscape:connector-curvature="0" /><path
         id="path76"
         style="fill:#d36c35;fill-opacity:1;fill-rule:nonzero;stroke:none"
         d="m 5832.83,877 c -4.49,0 -8.87,0.699 -13.06,1.801 -17.7,5 -31.76,20 -34.72,39.301 -1.48,9.699 -36,239.798 -15.08,458.828 2.39,25.06 23.47,43.82 48.13,43.82 1.54,0 3.1,-0.07 4.67,-0.22 26.66,-2.49 46.13,-26.18 43.59,-52.8 -19.74,-206.73 14.07,-432.73 14.42,-434.929 4.02,-26.5 -14.14,-51.199 -40.57,-55.199 -2.48,-0.403 -4.95,-0.602 -7.38,-0.602"
         inkscape:connector-curvature="0" /><path
         id="path78"
         style="fill:#98af6d;fill-opacity:1;fill-rule:nonzero;stroke:none"
         d="m 7914.43,8560.15 c -0.93,0 -1.87,0.03 -2.81,0.09 -3.15,0.21 -6.19,0.74 -9.1,1.56 -19.36,5.46 -32.94,23.85 -31.61,44.72 7.16,111.83 -38.65,159.28 -41.51,162.12 -17.33,16.27 -18.44,43.48 -2.39,61.12 8.6,9.43 20.39,14.22 32.22,14.22 10.47,0 20.98,-3.75 29.35,-11.35 8.13,-7.42 79.22,-76.89 69.31,-231.68 -1.48,-23.08 -20.66,-40.8 -43.46,-40.8"
         inkscape:connector-curvature="0" /><path
         id="path80"
         style="fill:#98af6d;fill-opacity:1;fill-rule:nonzero;stroke:none"
         d="m 7900.54,8332.65 c -0.83,0 -1.66,0.03 -2.49,0.07 -3.26,0.19 -6.41,0.73 -9.42,1.58 -19.24,5.42 -32.81,23.62 -31.63,44.39 l 5.03,89.13 c 1.31,23.2 20.52,41.12 43.46,41.12 0.83,0 1.66,-0.02 2.5,-0.07 24.07,-1.38 42.41,-21.94 41.05,-45.96 l -5.03,-89.13 c -1.32,-23.2 -20.53,-41.13 -43.47,-41.13"
         inkscape:connector-curvature="0" /><path
         id="path82"
         style="fill:#9eb972;fill-opacity:1;fill-rule:nonzero;stroke:none"
         d="m 8352.25,7721.39 c -6.39,0 -12.87,1.41 -18.93,4.35 -1.02,0.49 -2.02,1.02 -2.99,1.6 -20.79,12.13 -27.81,38.81 -15.68,59.59 56.45,96.73 60.84,182.35 60.91,184 0.86,23.49 20.18,41.98 43.53,41.98 0.49,0 0.98,-0.01 1.47,-0.02 24.06,-0.81 42.91,-20.96 42.1,-45.01 -0.15,-4.34 -4.33,-107.67 -72.74,-224.87 -8.1,-13.88 -22.68,-21.62 -37.67,-21.62"
         inkscape:connector-curvature="0" /><path
         id="path84"
         style="fill:#e2ad92;fill-opacity:1;fill-rule:nonzero;stroke:none"
         d="m 6422.23,5650.16 c -17.82,15.26 -26.63,25.28 -28.37,27.33 1.74,-2.05 10.6,-12.09 28.38,-27.31 -0.01,-0.01 -0.01,-0.01 -0.01,-0.02 m -28.38,27.35 0,0 0,0 m 7.13,82.21 c 10.86,9.03 24.05,13.45 37.17,13.45 8.37,0 16.72,-1.79 24.41,-5.34 -0.01,-0.02 -0.02,-0.04 -0.03,-0.06 -7.71,3.56 -16.07,5.37 -24.47,5.37 -13.09,0 -26.24,-4.4 -37.08,-13.42"
         inkscape:connector-curvature="0" /><path
         id="path86"
         style="fill:#d36c35;fill-opacity:1;fill-rule:nonzero;stroke:none"
         d="m 7073.97,5407.11 c -3.04,0 -6.11,0.24 -9.2,0.73 -93.56,14.9 -175.2,33.24 -246.23,53.28 -228.74,64.56 -347.02,146.83 -396.31,189.04 0,0.01 0,0.01 0.01,0.02 -17.78,15.22 -26.64,25.26 -28.38,27.31 0,0.01 -0.01,0.01 -0.01,0.02 l 0,0 c -0.04,0.04 -0.08,0.09 -0.11,0.12 l 0,0 c -9.2,10.93 -13.69,24.25 -13.67,37.51 0.02,16.5 7.05,32.89 20.66,44.36 0.08,0.08 0.17,0.15 0.25,0.22 10.84,9.02 23.99,13.42 37.08,13.42 8.4,0 16.76,-1.81 24.47,-5.37 0.01,0.02 0.02,0.04 0.03,0.06 7.49,-3.46 14.37,-8.58 20.04,-15.31 1.31,-1.56 143.52,-157.14 600.45,-229.92 31.64,-5.04 53.29,-34.83 48.23,-66.52 -4.56,-28.59 -29.25,-48.97 -57.31,-48.97"
         inkscape:connector-curvature="0" /><path
         id="path88"
         style="fill:#d36c35;fill-opacity:1;fill-rule:nonzero;stroke:none"
         d="m 7374.3,4728.39 c -20.07,0 -189.5,2.05 -421.38,67.49 -122.49,34.57 -262.42,86.84 -406.89,165.83 -28.15,15.39 -38.5,50.7 -23.11,78.85 10.55,19.31 30.48,30.26 51.04,30.26 9.42,0 18.98,-2.3 27.82,-7.14 395.69,-216.38 763.38,-219.08 773.1,-219.08 0.09,0 0.14,0 0.17,0 0.07,0 0.14,0 0.2,0 31.94,0 58.02,-25.7 58.23,-57.72 0.21,-32.08 -25.62,-58.27 -57.72,-58.49 -0.33,0 -0.82,0 -1.46,0"
         inkscape:connector-curvature="0" /><path
         id="path90"
         style="fill:#e2ad92;fill-opacity:1;fill-rule:nonzero;stroke:none"
         d="m 7254.11,3712.93 c -3.22,0 -6.94,0.05 -11.14,0.16 0,0.02 0,0.02 0,0.02 4.23,-0.12 7.97,-0.17 11.2,-0.17 8.73,0 13.77,0.33 14.9,0.41 30.5,2.26 53.75,27.68 53.8,57.77 -0.05,-30.09 -23.3,-55.51 -53.8,-57.77 -1.13,-0.09 -6.18,-0.42 -14.96,-0.42 m 68.57,63 c 0,0.01 0,0.03 0,0.05 0,-0.02 0,-0.03 0,-0.05 m -0.03,0.36 c 0,0.01 0,0.02 0,0.03 0,-0.01 0,-0.02 0,-0.03 m -1.17,7.66 c 0,0.03 -0.01,0.05 -0.02,0.08 0.01,-0.03 0.02,-0.05 0.02,-0.08 m -0.07,0.3 c 0,0.04 -0.01,0.08 -0.02,0.12 0.01,-0.04 0.02,-0.08 0.02,-0.12 m -0.06,0.29 c -0.03,0.13 -0.06,0.26 -0.09,0.39 0.03,-0.13 0.06,-0.26 0.09,-0.39 m -0.09,0.39 c -0.02,0.08 -0.04,0.16 -0.06,0.24 0.02,-0.08 0.04,-0.16 0.06,-0.24 m -0.07,0.27 c -4.64,18.93 -18.49,33.93 -36.22,40.52 0.01,0.03 0.01,0.02 0.02,0.05 17.72,-6.59 31.56,-21.63 36.2,-40.57"
         inkscape:connector-curvature="0" /><path
         id="path92"
         style="fill:#d36c35;fill-opacity:1;fill-rule:nonzero;stroke:none"
         d="m 7254.17,3712.94 c -3.23,0 -6.97,0.05 -11.2,0.17 l 0,0 c -35.5,0.97 -106,7.13 -206.32,35.45 -71.62,20.21 -158.44,51.72 -258.57,100.69 -28.82,14.1 -40.76,48.9 -26.66,77.72 10.09,20.61 30.78,32.55 52.27,32.55 8.56,0 17.26,-1.89 25.46,-5.89 240.42,-117.6 393.06,-124.49 425.32,-124.49 3.84,0 5.98,0.1 6.35,0.12 1.34,0.09 2.66,0.13 3.98,0.13 7.07,0 13.87,-1.27 20.19,-3.62 -0.01,-0.03 -0.01,-0.02 -0.02,-0.05 17.73,-6.59 31.58,-21.59 36.22,-40.52 0,-0.01 0.01,-0.02 0.01,-0.03 0.02,-0.08 0.04,-0.16 0.06,-0.24 l 0,0 c 0.03,-0.13 0.06,-0.26 0.09,-0.39 0.01,-0.06 0.03,-0.11 0.04,-0.17 0.01,-0.04 0.02,-0.08 0.02,-0.12 0.02,-0.07 0.04,-0.15 0.05,-0.22 0.01,-0.03 0.02,-0.05 0.02,-0.08 0.55,-2.48 0.95,-5.03 1.17,-7.63 0,-0.01 0,-0.02 0,-0.03 0.01,-0.1 0.02,-0.21 0.03,-0.31 0,-0.02 0,-0.04 0,-0.05 0.01,-0.11 0.02,-0.23 0.03,-0.34 0.11,-1.5 0.16,-2.99 0.16,-4.47 -0.05,-30.09 -23.3,-55.51 -53.8,-57.77 -1.13,-0.08 -6.17,-0.41 -14.9,-0.41"
         inkscape:connector-curvature="0" /><path
         id="path94"
         style="fill:#d36c35;fill-opacity:1;fill-rule:nonzero;stroke:none"
         d="m 7095.73,4204.17 c -6.52,0 -13.17,0.89 -19.76,2.75 -38.6,10.9 -61.06,51.02 -50.17,89.62 9.04,32.01 38.16,52.92 69.86,52.92 6.53,0 13.17,-0.89 19.76,-2.75 38.61,-10.89 61.07,-51.02 50.18,-89.62 -9.04,-32.01 -38.17,-52.92 -69.87,-52.92"
         inkscape:connector-curvature="0" /><path
         id="path96"
         style="fill:#e2ad92;fill-opacity:1;fill-rule:nonzero;stroke:none"
         d="m 5976.47,3463.17 c -7.74,5.24 -15.43,10.61 -23.05,16.11 -15.76,11.36 -24.14,29.15 -24.14,47.2 0,-18.05 8.38,-35.84 24.14,-47.2 7.62,-5.5 15.31,-10.86 23.05,-16.1 l 0,0 m -33.16,101.1 c 11.36,13.24 27.64,20.24 44.14,20.24 3.29,0 6.6,-0.28 9.88,-0.85 -0.01,-0.02 -0.01,-0.05 -0.02,-0.07 -3.29,0.57 -6.61,0.85 -9.93,0.85 -16.47,0 -32.72,-6.95 -44.07,-20.17"
         inkscape:connector-curvature="0" /><path
         id="path98"
         style="fill:#d36c35;fill-opacity:1;fill-rule:nonzero;stroke:none"
         d="m 6635.34,3246.9 c -1.07,0 -2.15,0.03 -3.23,0.09 -8.98,0.48 -133.89,8.05 -293.31,53.04 -113.11,31.92 -243.6,82.7 -362.33,163.14 0,0.01 0,0.01 0,0.01 -7.74,5.24 -15.43,10.6 -23.05,16.1 -15.76,11.36 -24.14,29.15 -24.14,47.2 0.01,11.76 3.57,23.63 10.97,33.91 0.97,1.35 2,2.65 3.06,3.89 11.35,13.22 27.6,20.17 44.07,20.17 3.32,0 6.64,-0.28 9.93,-0.85 0.01,0.02 0.01,0.05 0.02,0.07 8.41,-1.45 16.63,-4.79 24.03,-10.11 261.5,-188.47 613.62,-210.36 617.15,-210.55 31.96,-1.79 56.54,-29.15 54.78,-61.19 -1.69,-30.96 -27.32,-54.93 -57.95,-54.92"
         inkscape:connector-curvature="0" /><path
         id="path100"
         style="fill:#e2ad92;fill-opacity:1;fill-rule:nonzero;stroke:none"
         d="m 6762.87,2468.74 c -0.01,0 -0.01,0 -0.02,0 0.01,0 0.01,0 0.02,0 l 0,0 m 0.11,0 c 26.99,0.05 50.97,18.99 56.66,46.14 -5.69,-27.15 -29.67,-46.09 -56.66,-46.14 m -10.34,0.91 0,0 c -1.18,0.21 -5.81,1.04 -13.32,2.46 0.01,0 0.01,0 0.01,0 7.49,-1.42 12.14,-2.25 13.31,-2.46 l 0,0 m 67.14,45.9 c 0.02,0.12 0.05,0.23 0.07,0.35 -0.02,-0.12 -0.05,-0.23 -0.07,-0.35 m 0.28,1.49 c 0,0.03 0.01,0.06 0.01,0.09 0,-0.03 -0.01,-0.06 -0.01,-0.09 m 0.06,0.36 c 0,0.03 0.01,0.06 0.01,0.09 0,-0.03 -0.01,-0.06 -0.01,-0.09 m 0.05,0.35 c 0.01,0.03 0.01,0.06 0.02,0.09 -0.01,-0.03 -0.01,-0.05 -0.02,-0.09 m 0.06,0.37 c 0,0.03 0.01,0.05 0.01,0.07 0,-0.02 -0.01,-0.04 -0.01,-0.07 m 0.21,1.51 c 0,0.02 0,0.03 0.01,0.04 -0.01,-0.01 -0.01,-0.03 -0.01,-0.04 m 0.05,0.37 c 0,0.01 0,0.02 0,0.03 0,-0.01 0,-0.02 0,-0.03 m 0.04,0.36 c 0,0.01 0,0.03 0,0.04 0,-0.02 0,-0.03 0,-0.04 m 0.15,1.48 c 0,0.02 0,0.03 0,0.05 0,-0.02 0,-0.03 0,-0.05 m 0.03,0.34 c 0,0.03 0,0.06 0,0.09 0,-0.03 0,-0.06 0,-0.09 m 0.02,0.34 c 0.01,0.04 0.01,0.08 0.01,0.11 0,-0.03 0,-0.07 -0.01,-0.11 m 0.03,0.36 c 0,0.03 0.01,0.07 0.01,0.1 0,-0.03 -0.01,-0.06 -0.01,-0.1 m 0.02,0.37 c 0.01,0.03 0.01,0.05 0.01,0.08 0,-0.02 0,-0.05 -0.01,-0.08 m 0.03,0.41 c 0,0.06 0.01,0.12 0.01,0.17 0,-0.05 -0.01,-0.11 -0.01,-0.17 m 0.02,0.33 c 0,0.07 0,0.14 0.01,0.2 -0.01,-0.06 -0.01,-0.13 -0.01,-0.2 m 0.01,0.34 c 0.01,0.07 0.01,0.14 0.01,0.22 0,-0.08 0,-0.15 -0.01,-0.22 m 0.02,0.31 c 0,0.08 0,0.17 0.01,0.25 -0.01,-0.08 -0.01,-0.17 -0.01,-0.25 m 0.01,0.3 c 0.83,24.03 -13.36,45.95 -35.24,55.29 0.01,0.02 0.01,0.03 0.02,0.05 21.88,-9.34 36.05,-31.3 35.22,-55.34"
         inkscape:connector-curvature="0" /><path
         id="path102"
         style="fill:#d36c35;fill-opacity:1;fill-rule:nonzero;stroke:none"
         d="m 6762.87,2468.74 c -0.01,0 -0.01,0 -0.02,0 -3.37,0 -6.79,0.3 -10.21,0.91 l 0,0 c -1.17,0.21 -5.82,1.04 -13.31,2.46 l 0,0 c -32.04,6.09 -116.52,23.06 -208.97,49.16 -53.01,14.96 -108.66,32.92 -158.52,53.55 -29.65,12.27 -43.74,46.25 -31.48,75.9 9.27,22.39 30.96,35.91 53.76,35.91 7.39,0 14.9,-1.43 22.14,-4.43 145.4,-60.13 354.62,-97.77 356.71,-98.14 4.45,-0.8 8.69,-2.08 12.68,-3.78 -0.01,-0.02 -0.01,-0.03 -0.02,-0.05 21.88,-9.34 36.07,-31.26 35.24,-55.29 0,-0.02 0,-0.03 0,-0.05 -0.01,-0.08 -0.01,-0.17 -0.01,-0.25 0,-0.03 -0.01,-0.06 -0.01,-0.09 0,-0.08 0,-0.15 -0.01,-0.22 0,-0.05 0,-0.09 0,-0.14 -0.01,-0.06 -0.01,-0.13 -0.01,-0.2 0,-0.05 -0.01,-0.1 -0.01,-0.16 0,-0.05 -0.01,-0.11 -0.01,-0.17 -0.01,-0.11 -0.01,-0.22 -0.02,-0.33 0,-0.03 0,-0.05 -0.01,-0.08 0,-0.09 -0.01,-0.18 -0.01,-0.27 0,-0.03 -0.01,-0.07 -0.01,-0.1 0,-0.08 -0.01,-0.17 -0.02,-0.25 0,-0.03 0,-0.07 -0.01,-0.11 0,-0.08 -0.01,-0.16 -0.02,-0.25 0,-0.03 0,-0.06 0,-0.09 -0.01,-0.1 -0.02,-0.19 -0.03,-0.29 0,-0.02 0,-0.03 0,-0.05 -0.04,-0.48 -0.09,-0.96 -0.15,-1.44 0,-0.01 0,-0.03 0,-0.04 -0.01,-0.11 -0.03,-0.22 -0.04,-0.33 0,-0.01 0,-0.02 0,-0.03 -0.02,-0.11 -0.03,-0.22 -0.04,-0.33 -0.01,-0.01 -0.01,-0.02 -0.01,-0.04 -0.06,-0.48 -0.13,-0.95 -0.2,-1.44 0,-0.02 -0.01,-0.04 -0.01,-0.07 -0.01,-0.09 -0.03,-0.18 -0.04,-0.28 -0.01,-0.03 -0.01,-0.06 -0.02,-0.09 -0.01,-0.08 -0.02,-0.17 -0.04,-0.26 0,-0.03 -0.01,-0.06 -0.01,-0.09 -0.02,-0.09 -0.03,-0.18 -0.05,-0.27 0,-0.03 -0.01,-0.06 -0.01,-0.09 -0.02,-0.12 -0.04,-0.23 -0.07,-0.35 l 0,0 0,0 c -0.04,-0.26 -0.09,-0.53 -0.14,-0.79 -0.02,-0.12 -0.05,-0.23 -0.07,-0.35 -0.04,-0.22 -0.09,-0.45 -0.14,-0.67 -5.69,-27.15 -29.67,-46.09 -56.66,-46.14 -0.04,0 -0.08,0 -0.11,0"
         inkscape:connector-curvature="0" /><path
         id="path104"
         style="fill:#d36c35;fill-opacity:1;fill-rule:nonzero;stroke:none"
         d="m 6117.2,1803.35 c -0.17,0 -0.34,0 -0.51,0 -3.39,0.04 -57.96,0.85 -130.72,21.39 -36.89,10.41 -78.46,25.89 -120.4,48.9 -28.12,15.44 -38.42,50.76 -22.98,78.9 10.57,19.26 30.44,30.15 50.98,30.15 9.45,0 19.03,-2.31 27.92,-7.17 97.49,-53.49 194.43,-55.92 196.4,-55.97 31.96,-0.36 57.68,-26.57 57.41,-58.6 -0.29,-31.92 -26.25,-57.6 -58.1,-57.6"
         inkscape:connector-curvature="0" /><path
         id="path106"
         style="fill:#d36c35;fill-opacity:1;fill-rule:nonzero;stroke:none"
         d="m 6024.36,2333.2 c -6.53,0 -13.17,0.89 -19.76,2.75 -38.6,10.9 -61.07,51.02 -50.17,89.62 9.04,32.01 38.16,52.92 69.85,52.92 6.53,0 13.18,-0.89 19.77,-2.75 38.61,-10.89 61.07,-51.01 50.17,-89.62 -9.03,-32.01 -38.16,-52.92 -69.86,-52.92"
         inkscape:connector-curvature="0" /><path
         id="path108"
         style="fill:#e2ad92;fill-opacity:1;fill-rule:nonzero;stroke:none"
         d="m 6157.73,4462.02 c -1.63,0.77 -3.25,1.55 -4.87,2.33 1.59,-0.77 3.29,-1.48 4.89,-2.23 0,-0.03 -0.01,-0.07 -0.02,-0.1 m -32.24,79.96 c 10.01,20.8 30.82,32.93 52.45,32.93 0.44,0 0.89,-0.01 1.34,-0.02 -0.01,-0.02 -0.01,-0.03 -0.01,-0.05 -0.44,0.01 -0.88,0.01 -1.32,0.01 -21.63,0 -42.45,-12.08 -52.46,-32.87"
         inkscape:connector-curvature="0" /><path
         id="path110"
         style="fill:#d36c35;fill-opacity:1;fill-rule:nonzero;stroke:none"
         d="m 6540.38,4336.53 c -4.42,0 -8.91,0.51 -13.4,1.57 -6.11,1.44 -106.9,25.44 -219.03,63.98 -50.3,17.3 -102.88,37.52 -150.22,59.94 0.01,0.03 0.02,0.07 0.02,0.1 -1.6,0.75 -3.3,1.46 -4.89,2.23 -0.06,0.03 -0.12,0.05 -0.19,0.08 l 0,0 c -20.78,10 -32.91,30.75 -32.93,52.36 0,8.46 1.84,17.05 5.75,25.19 l 0,0 c 10.01,20.79 30.83,32.87 52.46,32.87 0.44,0 0.88,0 1.32,-0.01 0,0.02 0,0.03 0.01,0.05 8,-0.19 16.09,-2.04 23.75,-5.74 141.81,-68.17 348.6,-117.47 350.66,-117.95 31.31,-7.47 50.55,-38.69 43.18,-69.91 -6.31,-26.73 -30.16,-44.76 -56.49,-44.76"
         inkscape:connector-curvature="0" /></g></g></svg>